<svg width="4079" height="482" xmlns="http://www.w3.org/2000/svg" xmlns:xlink="http://www.w3.org/1999/xlink" xml:space="preserve" overflow="hidden"><g transform="translate(-160 -517)"><g><path d="M624.165 614.659C641.536 614.659 657.011 618.146 670.59 625.119 684.169 632.092 695.24 640.227 703.804 649.524L675.545 684.022C668.694 677.172 661.17 671.667 652.974 667.507 644.778 663.348 635.542 661.268 625.266 661.268 611.564 661.268 599.27 664.999 588.382 672.462 577.494 679.924 568.992 690.628 562.876 704.574 556.759 718.52 553.701 735.28 553.701 754.853 553.701 774.671 556.576 791.614 562.325 805.683 568.075 819.751 576.271 830.578 586.914 838.162 597.557 845.747 609.974 849.539 624.165 849.539 635.909 849.539 646.368 847.031 655.543 842.016 664.718 837 672.853 830.578 679.949 822.748L708.942 856.512C697.687 869.724 684.842 879.694 670.407 886.423 655.971 893.151 639.823 896.515 621.963 896.515 604.836 896.515 588.81 893.518 573.886 887.524 558.961 881.529 545.81 872.538 534.433 860.549 523.056 848.561 514.126 833.881 507.642 816.509 501.158 799.138 497.917 779.198 497.917 756.688 497.917 734.179 501.22 714.177 507.826 696.684 514.432 679.19 523.545 664.327 535.167 652.093 546.789 639.86 560.245 630.563 575.537 624.201 590.829 617.84 607.038 614.659 624.165 614.659ZM365.233 614.659C384.806 614.659 401.505 618.268 415.328 625.486 429.152 632.703 440.468 640.716 449.276 649.524L420.283 684.022C413.432 677.661 405.909 672.278 397.712 667.874 389.516 663.47 379.301 661.268 367.068 661.268 351.899 661.268 338.564 664.999 327.065 672.462 315.566 679.924 306.635 690.628 300.274 704.574 293.913 718.52 290.732 735.28 290.732 754.853 290.732 774.671 293.729 791.614 299.723 805.683 305.718 819.751 314.709 830.578 326.698 838.162 338.687 845.747 353.489 849.539 371.105 849.539 377.711 849.539 384.072 848.622 390.189 846.787 396.306 844.952 401.199 842.444 404.869 839.263L404.869 785.681 356.792 785.681 356.792 741.274 453.68 741.274 453.68 863.852C444.383 872.905 432.027 880.612 416.613 886.973 401.199 893.335 384.072 896.515 365.233 896.515 340.766 896.515 318.685 891.133 298.989 880.367 279.294 869.602 263.696 853.821 252.197 833.024 240.698 812.228 234.948 786.782 234.948 756.688 234.948 734.179 238.312 714.177 245.04 696.684 251.769 679.19 261.127 664.327 273.116 652.093 285.105 639.86 298.928 630.563 314.587 624.201 330.246 617.84 347.128 614.659 365.233 614.659Z" stroke="#000000" stroke-width="3" stroke-linecap="butt" stroke-linejoin="round" stroke-miterlimit="10" stroke-opacity="1" fill="#894F24" fill-rule="evenodd" fill-opacity="1"/><text fill="#000000" fill-opacity="0" font-family="Arial,Arial_MSFontService,sans-serif" font-size="281.856" direction="ltr" writing-mode="lr-tb" x="234.948" y="861.283">GC</text><path d="M1188.48 793.021C1171.84 794.979 1158.63 797.792 1148.84 801.462 1139.06 805.132 1132.08 809.475 1127.92 814.491 1123.76 819.506 1121.69 825.073 1121.69 831.189 1121.69 839.263 1124.19 845.135 1129.21 848.805 1134.22 852.475 1140.77 854.31 1148.84 854.31 1156.43 854.31 1163.34 852.536 1169.58 848.989 1175.82 845.441 1182.12 840.487 1188.48 834.125ZM889.51 770.267 889.51 849.539 927.311 849.539C945.905 849.539 960.035 846.175 969.699 839.447 979.363 832.718 984.196 822.259 984.196 808.068 984.196 794.856 979.363 785.253 969.699 779.259 960.035 773.264 945.905 770.267 927.311 770.267ZM1404.67 680.719C1410.55 680.719 1415.26 681.147 1418.8 682.004 1422.35 682.86 1425.59 683.9 1428.53 685.123L1419.72 731.732C1415.81 730.754 1412.32 729.958 1409.26 729.347 1406.2 728.735 1402.35 728.429 1397.7 728.429 1389.87 728.429 1381.61 731.488 1372.93 737.604 1364.24 743.721 1356.96 754.119 1351.09 768.799L1351.09 891.377 1297.14 891.377 1297.14 685.857 1341.18 685.857 1345.22 722.19 1346.32 722.19C1353.91 708.734 1362.84 698.458 1373.11 691.362 1383.39 684.267 1393.91 680.719 1404.67 680.719ZM1163.52 680.719C1180.89 680.719 1195.45 684.145 1207.2 690.995 1218.94 697.846 1227.75 708 1233.62 721.456 1239.49 734.913 1242.43 751.55 1242.43 771.368L1242.43 891.377 1198.39 891.377 1194.72 869.357 1192.88 869.357C1184.08 877.187 1174.53 883.67 1164.26 888.808 1153.98 893.946 1142.85 896.515 1130.86 896.515 1118.87 896.515 1108.29 893.885 1099.11 888.625 1089.94 883.364 1082.84 876.086 1077.83 866.788 1072.81 857.491 1070.31 846.97 1070.31 835.226 1070.31 813.451 1079.72 796.508 1098.56 784.397 1117.4 772.286 1147.38 764.028 1188.48 759.624 1188.23 752.774 1187.01 746.718 1184.81 741.458 1182.61 736.197 1179 731.977 1173.98 728.796 1168.97 725.616 1162.18 724.025 1153.61 724.025 1144.07 724.025 1134.65 725.86 1125.36 729.53 1116.06 733.2 1106.64 737.971 1097.1 743.843L1078.01 707.877C1086.09 702.739 1094.65 698.213 1103.7 694.298 1112.75 690.384 1122.3 687.142 1132.33 684.573 1142.36 682.004 1152.76 680.719 1163.52 680.719ZM889.51 661.268 889.51 730.264 921.439 730.264C938.565 730.264 951.043 727.022 958.873 720.539 966.702 714.055 970.617 705.431 970.617 694.665 970.617 682.677 966.58 674.113 958.506 668.975 950.432 663.837 938.198 661.268 921.806 661.268ZM835.194 619.43 925.109 619.43C943.703 619.43 960.402 621.51 975.204 625.669 990.006 629.829 1001.75 636.802 1010.44 646.588 1019.12 656.375 1023.46 669.709 1023.46 686.591 1023.46 694.91 1021.94 703.045 1018.88 710.997 1015.82 718.948 1011.6 725.983 1006.22 732.099 1000.83 738.216 994.227 742.742 986.398 745.678L986.398 747.146C1001.08 750.572 1013.19 757.606 1022.73 768.249 1032.27 778.892 1037.04 793.266 1037.04 811.371 1037.04 829.477 1032.46 844.462 1023.28 856.329 1014.11 868.195 1001.63 877.003 985.847 882.753 970.066 888.502 952.144 891.377 932.082 891.377L835.194 891.377Z" stroke="#000000" stroke-width="3" stroke-linecap="butt" stroke-linejoin="round" stroke-miterlimit="10" stroke-opacity="1" fill="#E94B22" fill-rule="evenodd" fill-opacity="1"/><text fill="#000000" fill-opacity="0" font-family="Arial,Arial_MSFontService,sans-serif" font-size="277.085" direction="ltr" writing-mode="lr-tb" x="835.194" y="861.88">Bar</text><path d="M1954.01 725.126C1946.43 725.126 1939.39 727.512 1932.91 732.283 1926.43 737.054 1921.23 744.088 1917.31 753.385 1913.4 762.683 1911.44 774.182 1911.44 787.883 1911.44 802.074 1913.09 813.94 1916.4 823.482 1919.7 833.024 1924.53 840.181 1930.89 844.952 1937.25 849.723 1944.96 852.108 1954.01 852.108 1961.35 852.108 1968.14 850.457 1974.38 847.154 1980.62 843.851 1986.68 838.407 1992.55 830.822L1992.55 740.54C1986.43 734.913 1980.13 730.937 1973.65 728.613 1967.16 726.288 1960.62 725.126 1954.01 725.126ZM1723.91 724.759C1714.61 724.759 1706.72 727.389 1700.24 732.65 1693.75 737.91 1688.86 745.311 1685.56 754.853 1682.25 764.395 1680.6 775.65 1680.6 788.617 1680.6 801.585 1682.25 812.839 1685.56 822.381 1688.86 831.923 1693.75 839.324 1700.24 844.585 1706.72 849.845 1714.61 852.475 1723.91 852.475 1733.2 852.475 1741.09 849.845 1747.58 844.585 1754.06 839.324 1758.96 831.923 1762.26 822.381 1765.56 812.839 1767.21 801.585 1767.21 788.617 1767.21 775.65 1765.56 764.395 1762.26 754.853 1758.96 745.311 1754.06 737.91 1747.58 732.65 1741.09 727.389 1733.2 724.759 1723.91 724.759ZM2187.49 722.557C2180.39 722.557 2173.66 724.209 2167.3 727.512 2160.94 730.815 2155.56 735.83 2151.15 742.559 2146.75 749.287 2143.81 757.667 2142.35 767.698L2226.39 767.698C2226.39 753.997 2223.27 743.048 2217.03 734.852 2210.79 726.655 2200.94 722.557 2187.49 722.557ZM2186.75 680.719C2205.59 680.719 2221.37 684.94 2234.1 693.381 2246.82 701.822 2256.42 713.443 2262.9 728.246 2269.39 743.048 2272.63 759.991 2272.63 779.075 2272.63 783.969 2272.39 788.678 2271.9 793.205 2271.41 797.731 2270.8 801.34 2270.06 804.031L2143.45 804.031C2144.91 815.041 2148.22 824.339 2153.36 831.923 2158.49 839.508 2165.1 845.196 2173.17 848.989 2181.25 852.781 2190.42 854.677 2200.7 854.677 2209.02 854.677 2216.85 853.515 2224.19 851.191 2231.53 848.866 2238.99 845.38 2246.57 840.731L2264.92 873.761C2254.89 880.612 2243.64 886.117 2231.16 890.276 2218.68 894.436 2206.08 896.515 2193.36 896.515 2174.27 896.515 2157.03 892.234 2141.61 883.67 2126.2 875.107 2113.9 862.751 2104.73 846.603 2095.55 830.455 2090.97 811.127 2090.97 788.617 2090.97 771.98 2093.6 757.055 2098.86 743.843 2104.12 730.631 2111.33 719.315 2120.51 709.896 2129.68 700.476 2139.96 693.258 2151.34 688.243 2162.71 683.227 2174.52 680.719 2186.75 680.719ZM1723.91 680.719C1736.87 680.719 1749.23 683.166 1760.97 688.059 1772.72 692.953 1783.24 699.987 1792.54 709.162 1801.83 718.337 1809.17 729.591 1814.56 742.926 1819.94 756.26 1822.63 771.491 1822.63 788.617 1822.63 811.371 1817.98 830.761 1808.68 846.787 1799.39 862.812 1787.21 875.107 1772.17 883.67 1757.12 892.234 1741.03 896.515 1723.91 896.515 1706.78 896.515 1690.69 892.234 1675.65 883.67 1660.6 875.107 1648.43 862.812 1639.13 846.787 1629.83 830.761 1625.18 811.371 1625.18 788.617 1625.18 765.863 1629.83 746.473 1639.13 730.448 1648.43 714.422 1660.6 702.128 1675.65 693.564 1690.69 685.001 1706.78 680.719 1723.91 680.719ZM1549.68 680.719C1562.4 680.719 1573.65 682.86 1583.44 687.142 1593.23 691.423 1601.91 696.99 1609.5 703.84L1583.81 737.971C1578.92 733.567 1573.9 730.264 1568.76 728.062 1563.62 725.86 1558.24 724.759 1552.61 724.759 1542.09 724.759 1532.86 727.389 1524.9 732.65 1516.95 737.91 1510.84 745.311 1506.55 754.853 1502.27 764.395 1500.13 775.65 1500.13 788.617 1500.13 801.585 1502.27 812.839 1506.55 822.381 1510.84 831.923 1516.83 839.324 1524.54 844.585 1532.24 849.845 1540.99 852.475 1550.78 852.475 1558.12 852.475 1565.21 850.885 1572.06 847.704 1578.92 844.524 1585.15 840.609 1590.78 835.96L1612.07 871.559C1602.28 880.123 1591.45 886.423 1579.59 890.46 1567.72 894.497 1556.16 896.515 1544.91 896.515 1526.07 896.515 1509.06 892.234 1493.89 883.67 1478.72 875.107 1466.74 862.812 1457.93 846.787 1449.12 830.761 1444.72 811.371 1444.72 788.617 1444.72 765.863 1449.55 746.473 1459.21 730.448 1468.88 714.422 1481.72 702.128 1497.75 693.564 1513.77 685.001 1531.08 680.719 1549.68 680.719ZM1992.55 598.511 2046.5 598.511 2046.5 891.377 2002.46 891.377 1998.42 870.091 1996.95 870.091C1989.37 877.431 1980.68 883.67 1970.9 888.808 1961.11 893.946 1950.83 896.515 1940.07 896.515 1922.94 896.515 1908.08 892.234 1895.48 883.67 1882.88 875.107 1873.15 862.751 1866.3 846.603 1859.45 830.455 1856.02 811.127 1856.02 788.617 1856.02 766.353 1860.12 747.207 1868.32 731.182 1876.52 715.156 1887.22 702.739 1900.43 693.931 1913.64 685.123 1927.59 680.719 1942.27 680.719 1953.77 680.719 1963.49 682.738 1971.45 686.775 1979.4 690.812 1987.04 696.256 1994.38 703.106L1992.55 670.81Z" stroke="#000000" stroke-width="3" stroke-linecap="butt" stroke-linejoin="round" stroke-miterlimit="10" stroke-opacity="1" fill="#FAC000" fill-rule="evenodd" fill-opacity="1"/><text fill="#000000" fill-opacity="0" font-family="Arial,Arial_MSFontService,sans-serif" font-size="298.004" direction="ltr" writing-mode="lr-tb" x="1444.72" y="859.265">code</text><path d="M2746.65 722.557C2739.56 722.557 2732.83 724.209 2726.47 727.512 2720.11 730.815 2714.72 735.83 2710.32 742.559 2705.92 749.287 2702.98 757.667 2701.51 767.698L2785.56 767.698C2785.56 753.997 2782.44 743.048 2776.2 734.852 2769.96 726.655 2760.11 722.557 2746.65 722.557ZM2992.07 680.719C3014.34 680.719 3030.49 687.998 3040.52 702.556 3050.55 717.113 3055.56 737.36 3055.57 763.294L3055.57 891.377 3001.62 891.377 3001.62 769.9C3001.62 753.997 2999.35 742.865 2994.83 736.503 2990.3 730.142 2982.9 726.961 2972.62 726.961 2964.3 726.961 2957.03 728.919 2950.79 732.833 2944.55 736.748 2937.64 742.498 2930.05 750.082L2930.05 891.377 2876.1 891.377 2876.1 685.857 2920.14 685.857 2924.18 713.015 2925.28 713.015C2934.33 704.207 2944.24 696.623 2955.01 690.261 2965.77 683.9 2978.13 680.719 2992.07 680.719ZM2745.92 680.719C2764.76 680.719 2780.54 684.94 2793.26 693.381 2805.98 701.822 2815.59 713.443 2822.07 728.246 2828.56 743.048 2831.8 759.991 2831.8 779.075 2831.8 783.969 2831.55 788.678 2831.06 793.205 2830.57 797.731 2829.96 801.34 2829.23 804.031L2702.61 804.031C2704.08 815.041 2707.38 824.339 2712.52 831.923 2717.66 839.508 2724.27 845.196 2732.34 848.989 2740.41 852.781 2749.59 854.677 2759.87 854.677 2768.18 854.677 2776.01 853.515 2783.35 851.191 2790.69 848.866 2798.16 845.38 2805.74 840.731L2824.09 873.761C2814.06 880.612 2802.8 886.117 2790.33 890.276 2777.85 894.436 2765.25 896.515 2752.53 896.515 2733.44 896.515 2716.19 892.234 2700.78 883.67 2685.36 875.107 2673.07 862.751 2663.89 846.603 2654.72 830.455 2650.13 811.127 2650.13 788.617 2650.13 771.98 2652.76 757.055 2658.02 743.843 2663.28 730.631 2670.5 719.315 2679.68 709.896 2688.85 700.476 2699.13 693.258 2710.5 688.243 2721.88 683.227 2733.69 680.719 2745.92 680.719ZM2521.12 614.659C2540.69 614.659 2557.39 618.268 2571.21 625.486 2585.04 632.703 2596.35 640.716 2605.16 649.524L2576.17 684.022C2569.32 677.661 2561.79 672.278 2553.6 667.874 2545.4 663.47 2535.19 661.268 2522.95 661.268 2507.78 661.268 2494.45 664.999 2482.95 672.462 2471.45 679.924 2462.52 690.628 2456.16 704.574 2449.8 718.52 2446.62 735.28 2446.62 754.853 2446.62 774.671 2449.61 791.614 2455.61 805.683 2461.6 819.751 2470.59 830.578 2482.58 838.162 2494.57 845.747 2509.37 849.539 2526.99 849.539 2533.6 849.539 2539.96 848.622 2546.07 846.787 2552.19 844.952 2557.08 842.444 2560.75 839.263L2560.75 785.681 2512.68 785.681 2512.68 741.274 2609.57 741.274 2609.57 863.852C2600.27 872.905 2587.91 880.612 2572.5 886.973 2557.08 893.335 2539.96 896.515 2521.12 896.515 2496.65 896.515 2474.57 891.133 2454.88 880.367 2435.18 869.602 2419.58 853.821 2408.08 833.024 2396.58 812.228 2390.83 786.782 2390.83 756.688 2390.83 734.179 2394.2 714.177 2400.93 696.684 2407.65 679.19 2417.01 664.327 2429 652.093 2440.99 639.86 2454.81 630.563 2470.47 624.201 2486.13 617.84 2503.01 614.659 2521.12 614.659Z" stroke="#000000" stroke-width="3" stroke-linecap="butt" stroke-linejoin="round" stroke-miterlimit="10" stroke-opacity="1" fill="#80BC27" fill-rule="evenodd" fill-opacity="1"/><text fill="#000000" fill-opacity="0" font-family="Arial,Arial_MSFontService,sans-serif" font-size="281.856" direction="ltr" writing-mode="lr-tb" x="2390.83" y="861.283">Gen</text><path d="M3579.26 793.021C3562.62 794.979 3549.41 797.792 3539.62 801.462 3529.84 805.132 3522.86 809.475 3518.71 814.491 3514.55 819.506 3512.47 825.073 3512.47 831.189 3512.47 839.263 3514.97 845.135 3519.99 848.805 3525.01 852.475 3531.55 854.31 3539.62 854.31 3547.21 854.31 3554.12 852.536 3560.36 848.989 3566.6 845.441 3572.9 840.487 3579.26 834.125ZM3909.58 724.759C3900.29 724.759 3892.4 727.389 3885.91 732.65 3879.43 737.91 3874.54 745.311 3871.23 754.853 3867.93 764.395 3866.28 775.65 3866.28 788.617 3866.28 801.585 3867.93 812.839 3871.23 822.381 3874.54 831.923 3879.43 839.324 3885.91 844.585 3892.4 849.845 3900.29 852.475 3909.58 852.475 3918.88 852.475 3926.77 849.845 3933.26 844.585 3939.74 839.324 3944.63 831.923 3947.94 822.381 3951.24 812.839 3952.89 801.585 3952.89 788.617 3952.89 775.65 3951.24 764.395 3947.94 754.853 3944.63 745.311 3939.74 737.91 3933.26 732.65 3926.77 727.389 3918.88 724.759 3909.58 724.759ZM3194.67 722.557C3187.58 722.557 3180.85 724.209 3174.49 727.512 3168.13 730.815 3162.74 735.83 3158.34 742.559 3153.94 749.287 3151 757.667 3149.53 767.698L3233.58 767.698C3233.58 753.997 3230.46 743.048 3224.22 734.852 3217.98 726.655 3208.13 722.557 3194.67 722.557ZM4160.98 680.719C4166.85 680.719 4171.56 681.147 4175.11 682.004 4178.65 682.86 4181.9 683.9 4184.83 685.123L4176.02 731.732C4172.11 730.754 4168.62 729.958 4165.56 729.347 4162.51 728.735 4158.65 728.429 4154 728.429 4146.17 728.429 4137.92 731.488 4129.23 737.604 4120.55 743.721 4113.27 754.119 4107.4 768.799L4107.4 891.377 4053.45 891.377 4053.45 685.857 4097.49 685.857 4101.52 722.19 4102.62 722.19C4110.21 708.734 4119.14 698.458 4129.42 691.362 4139.69 684.267 4150.21 680.719 4160.98 680.719ZM3909.58 680.719C3922.55 680.719 3934.91 683.166 3946.65 688.059 3958.4 692.953 3968.92 699.987 3978.21 709.162 3987.51 718.337 3994.85 729.591 4000.23 742.926 4005.62 756.26 4008.31 771.491 4008.31 788.617 4008.31 811.371 4003.66 830.761 3994.36 846.787 3985.06 862.812 3972.89 875.107 3957.84 883.67 3942.8 892.234 3926.71 896.515 3909.58 896.515 3892.46 896.515 3876.37 892.234 3861.32 883.67 3846.28 875.107 3834.1 862.812 3824.81 846.787 3815.51 830.761 3810.86 811.371 3810.86 788.617 3810.86 765.863 3815.51 746.473 3824.81 730.448 3834.1 714.422 3846.28 702.128 3861.32 693.564 3876.37 685.001 3892.46 680.719 3909.58 680.719ZM3554.3 680.719C3571.68 680.719 3586.23 684.145 3597.98 690.995 3609.72 697.846 3618.53 708 3624.4 721.456 3630.27 734.913 3633.21 751.55 3633.21 771.368L3633.21 891.377 3589.17 891.377 3585.5 869.357 3583.66 869.357C3574.86 877.187 3565.31 883.67 3555.04 888.808 3544.76 893.946 3533.63 896.515 3521.64 896.515 3509.65 896.515 3499.07 893.885 3489.9 888.625 3480.72 883.364 3473.63 876.086 3468.61 866.788 3463.59 857.491 3461.09 846.97 3461.09 835.226 3461.09 813.451 3470.51 796.508 3489.35 784.397 3508.18 772.286 3538.16 764.028 3579.26 759.624 3579.02 752.774 3577.79 746.718 3575.59 741.458 3573.39 736.197 3569.78 731.977 3564.76 728.796 3559.75 725.616 3552.96 724.025 3544.4 724.025 3534.85 724.025 3525.43 725.86 3516.14 729.53 3506.84 733.2 3497.42 737.971 3487.88 743.843L3468.79 707.877C3476.87 702.739 3485.43 698.213 3494.48 694.298 3503.54 690.384 3513.08 687.142 3523.11 684.573 3533.14 682.004 3543.54 680.719 3554.3 680.719ZM3431.65 680.719C3437.53 680.719 3442.24 681.147 3445.78 682.004 3449.33 682.86 3452.57 683.9 3455.51 685.123L3446.7 731.732C3442.79 730.754 3439.3 729.958 3436.24 729.347 3433.18 728.735 3429.33 728.429 3424.68 728.429 3416.85 728.429 3408.59 731.488 3399.91 737.604 3391.22 743.721 3383.94 754.119 3378.07 768.799L3378.07 891.377 3324.12 891.377 3324.12 685.857 3368.16 685.857 3372.2 722.19 3373.3 722.19C3380.89 708.734 3389.82 698.458 3400.09 691.362 3410.37 684.267 3420.89 680.719 3431.65 680.719ZM3193.94 680.719C3212.78 680.719 3228.56 684.94 3241.28 693.381 3254.01 701.822 3263.61 713.443 3270.09 728.246 3276.58 743.048 3279.82 759.991 3279.82 779.075 3279.82 783.969 3279.57 788.678 3279.08 793.205 3278.59 797.731 3277.98 801.34 3277.25 804.031L3150.63 804.031C3152.1 815.041 3155.4 824.339 3160.54 831.923 3165.68 839.508 3172.29 845.196 3180.36 848.989 3188.43 852.781 3197.61 854.677 3207.89 854.677 3216.2 854.677 3224.03 853.515 3231.37 851.191 3238.71 848.866 3246.18 845.38 3253.76 840.731L3272.11 873.761C3262.08 880.612 3250.82 886.117 3238.35 890.276 3225.87 894.436 3213.27 896.515 3200.55 896.515 3181.46 896.515 3164.21 892.234 3148.8 883.67 3133.39 875.107 3121.09 862.751 3111.92 846.603 3102.74 830.455 3098.15 811.127 3098.15 788.617 3098.15 771.98 3100.78 757.055 3106.04 743.843 3111.3 730.631 3118.52 719.315 3127.7 709.896 3136.87 700.476 3147.15 693.258 3158.52 688.243 3169.9 683.227 3181.71 680.719 3193.94 680.719ZM3695.64 630.44 3740.05 630.44 3740.05 685.857 3791.06 685.857 3791.06 728.429 3740.05 728.429 3740.05 819.445C3740.05 831.189 3742.49 839.875 3747.39 845.502 3752.28 851.13 3759.25 853.943 3768.31 853.943 3771.73 853.943 3775.28 853.454 3778.95 852.475 3782.62 851.497 3785.8 850.518 3788.49 849.539L3797.67 888.808C3792.04 890.521 3785.62 892.234 3778.4 893.946 3771.18 895.659 3763.05 896.515 3753.99 896.515 3737.85 896.515 3724.76 893.273 3714.72 886.79 3704.69 880.306 3697.48 871.315 3693.07 859.815 3688.67 848.316 3686.47 834.982 3686.47 819.812L3686.47 728.429 3657.47 728.429 3657.47 688.426 3689.4 685.857Z" stroke="#000000" stroke-width="3" stroke-linecap="butt" stroke-linejoin="round" stroke-miterlimit="10" stroke-opacity="1" fill="#3DACDC" fill-rule="evenodd" fill-opacity="1"/><text fill="#000000" fill-opacity="0" font-family="Arial,Arial_MSFontService,sans-serif" font-size="266.075" direction="ltr" writing-mode="lr-tb" x="3098.15" y="863.256">erator</text></g></g></svg>